<?xml version="1.0" encoding="UTF-8" standalone="no"?>
<!-- Uploaded to: SVG Repo, www.svgrepo.com, Generator: SVG Repo Mixer Tools -->

<svg
   fill="#000000"
   width="800px"
   height="800px"
   viewBox="0 0 32 32"
   version="1.1"
   xml:space="preserve"
   id="svg1"
   sodipodi:docname="among-us-game-crewmate-ejected-svgrepo-com.svg"
   inkscape:version="1.4.2 (ebf0e940, 2025-05-08)"
   xmlns:inkscape="http://www.inkscape.org/namespaces/inkscape"
   xmlns:sodipodi="http://sodipodi.sourceforge.net/DTD/sodipodi-0.dtd"
   xmlns="http://www.w3.org/2000/svg"
   xmlns:svg="http://www.w3.org/2000/svg"><defs
   id="defs1" /><sodipodi:namedview
   id="namedview1"
   pagecolor="#ffffff"
   bordercolor="#000000"
   borderopacity="0.25"
   inkscape:showpageshadow="2"
   inkscape:pageopacity="0.0"
   inkscape:pagecheckerboard="0"
   inkscape:deskcolor="#d1d1d1"
   inkscape:zoom="1.13"
   inkscape:cx="399.11504"
   inkscape:cy="398.23009"
   inkscape:window-width="2560"
   inkscape:window-height="1381"
   inkscape:window-x="2560"
   inkscape:window-y="31"
   inkscape:window-maximized="1"
   inkscape:current-layer="svg1" />

<style
   type="text/css"
   id="style1">
	.st0{display:none;}
</style>

<g
   class="st0"
   id="etc" />

<g
   id="Hats" />

<g
   id="Crewmates" />

<g
   id="ejection"
   transform="matrix(0.72459253,0,0,0.72459253,4.1614344,2.8870981)">

<path
   d="M 30,10.1548 C 29.998,9.5737 29.7695,9.0283 29.3574,8.6196 28.9443,8.2104 28.4023,7.9658 27.8164,7.9902 L 27.206,7.9934 28.8574,5.5151 C 29.2607,4.8427 29.2656,4.0254 28.8711,3.3276 28.415,2.521 27.5117,2 26.5703,2 25.9355,2 25.3389,2.2471 24.8906,2.6958 L 24.0039,3.582 C 23.9502,3.4365 23.8818,3.2949 23.7978,3.1596 23.3496,2.4336 22.5605,2 21.6885,2 20.9453,2 20.2539,2.333 19.7901,2.9136 l -2.7256,3.415 c -0.71,0.8882 -1.0977,2.0034 -1.0928,3.1396 l 0.0134,3.5599 c -0.6112,0.62 -0.9885,1.4714 -0.985,2.4093 l 10e-4,0.1621 c 0.0029,0.9121 0.3613,1.7681 1.0088,2.4102 0.0358,0.0355 0.0784,0.0605 0.1155,0.0942 0.1561,0.7336 0.4616,1.3546 0.9392,1.8345 0.702,0.7047 1.6815,1.0616 2.9081,1.0616 0.0088,0 0.0186,0 0.0273,0 h 3.0039 c 2.5111,-0.0107 4.0036,-1.5056 3.9958,-3.9955 L 27.8555,17 c 1.1992,-0.0063 2.1699,-0.9863 2.1641,-2.1846 z m -11.5811,6.8447 c -0.002,0 -0.0039,0 -0.0059,0 -0.375,0 -0.7285,-0.1455 -0.9941,-0.4097 -0.2686,-0.2656 -0.417,-0.6201 -0.418,-0.9995 L 17,15.4277 c -0.0029,-0.7783 0.6279,-1.4146 1.4072,-1.418 l 2.1738,-0.0093 c 0.0029,0 0.0049,0 0.0068,0 0.375,0 0.7285,0.1455 0.9941,0.4097 0.2686,0.2656 0.417,0.6201 0.418,0.9995 l 0.001,0.1626 c 0.0029,0.7783 -0.6279,1.4146 -1.4063,1.418 z M 25,17.0039 C 25.0059,18.397 24.4062,18.9941 23,19 h -3.0039 c -0.0373,-2e-4 -0.0682,-0.0056 -0.1045,-0.0067 l 0.7119,-0.0031 c 1.8799,-0.0083 3.4043,-1.5449 3.3975,-3.4277 L 24,15.4004 c -0.0029,-0.9121 -0.3613,-1.7681 -1.0088,-2.4102 -0.6475,-0.6421 -1.5127,-0.9668 -2.418,-0.9897 l -2.1748,0.0093 c 0,0 0,0 -10e-4,0 -0.1425,6e-4 -0.2781,0.0262 -0.416,0.0439 L 17.9717,9.46 C 17.9688,8.7784 18.2012,8.1094 18.627,7.5767 l 2.7256,-3.415 C 21.4346,4.0591 21.5576,4 21.6885,4 c 0.1738,0 0.3262,0.0786 0.4082,0.2109 0.0664,0.1069 0.0693,0.2217 0.0088,0.3418 l -1,2 c -0.2188,0.439 -0.0879,0.9717 0.3096,1.2583 0.3975,0.2871 0.9453,0.2422 1.292,-0.104 l 3.5977,-3.5972 c 0.249,-0.2495 0.7031,-0.0156 0.8262,0.2031 0.1055,0.1855 0.0371,0.1333 0.0371,0.1323 l -2,3 C 25.0586,7.6094 25,7.8027 25,8 v 0.8609 c -0.0071,0.0487 -0.0285,0.0923 -0.0283,0.143 L 25,16.0137 Z M 27.8457,15 27,15.0044 V 9.9945 l 0.8271,-0.0043 c 10e-4,0 10e-4,0 10e-4,0 0.0586,0 0.0986,0.0269 0.1211,0.0498 C 27.9727,10.063 28,10.1021 28,10.1621 l 0.0195,4.6621 c 0,0.0967 -0.0781,0.1753 -0.1738,0.1758 z M 21,23 c -0.5527,0 -1,0.4478 -1,1 v 1 c 0,1.6543 -1.3457,3 -3,3 -1.1104,0 -2.5244,-0.2822 -3.8535,-0.7432 C 14.2549,26.3779 15,25.291 15,24 15,21.3369 12.4355,20 11,20 9.5645,20 7,21.3369 7,24 7,25.291 7.7451,26.3779 8.8535,27.2568 7.5244,27.7178 6.1104,28 5,28 H 3 c -0.5527,0 -1,0.4478 -1,1 0,0.5522 0.4473,1 1,1 h 2 c 1.4668,0 3.9004,-0.4912 6,-1.459 2.0996,0.9678 4.5332,1.459 6,1.459 2.7568,0 5,-2.2432 5,-5 v -1 c 0,-0.5522 -0.4473,-1 -1,-1 z M 11,26.2993 C 9.8242,25.625 9,24.8164 9,24 c 0,-1.3984 1.5176,-2 2,-2 0.4824,0 2,0.6016 2,2 0,0.8164 -0.8242,1.625 -2,2.2993 z"
   id="path1" />

</g>

<g
   id="sabotage" />

<g
   id="Die" />

<g
   id="Die_2" />

<g
   id="ghost" />

<g
   id="impostor" />

<g
   id="pets" />

<g
   id="crewmates" />

<g
   id="Guides" />

<path
   d="M 5.0607345,26.310796 H 5.9047 v 2.964048 q 0,0.345721 -0.2491223,0.599927 -0.2491224,0.249123 -0.5948432,0.249123 H 4.2116848 q -0.3457208,0 -0.5999273,-0.249123 -0.2491224,-0.249122 -0.2491224,-0.599927 v -2.964048 h 0.8490497 v 2.964048 q 0,0.17286 0.1220191,0.299964 0.1271033,0.127103 0.2999637,0.127103 0.1779445,0 0.2999637,-0.127103 0.1271032,-0.127104 0.1271032,-0.299964 z m 1.6930144,3.813098 V 26.310796 H 6.95203 l 2.3437838,2.120083 v -2.120083 h 0.4270669 v 3.813098 H 9.5296838 l -2.348868,-2.120082 v 2.120082 z m 3.8130971,0 v -3.813098 h 0.84905 v 1.555744 l 1.372715,-1.555744 h 0.747367 l -1.698099,1.906549 1.698099,1.906549 h -0.849049 l -1.271033,-1.484566 v 1.484566 z m 3.813098,0 v -3.813098 h 0.198281 l 2.343784,2.120083 v -2.120083 h 0.427067 v 3.813098 h -0.193197 l -2.348868,-2.120082 v 2.120082 z m 4.662147,-3.813098 h 0.84905 q 0.345721,0 0.594843,0.254207 0.249122,0.249122 0.249122,0.594843 v 2.114998 q 0,0.345721 -0.249122,0.599927 -0.249122,0.249123 -0.594843,0.249123 h -0.84905 q -0.345721,0 -0.599927,-0.249123 -0.249123,-0.249122 -0.249123,-0.599927 v -2.114998 q 0,-0.350805 0.249123,-0.599927 0.254206,-0.249123 0.599927,-0.249123 z m 0,0.84905 v 2.114998 q 0,0.17286 0.122019,0.299964 0.127103,0.127103 0.299964,0.127103 0.177944,0 0.299963,-0.127103 0.127104,-0.127104 0.127104,-0.299964 v -2.114998 q 0,-0.177944 -0.127104,-0.299964 -0.122019,-0.127103 -0.299963,-0.127103 -0.172861,0 -0.299964,0.127103 -0.122019,0.12202 -0.122019,0.299964 z m 2.542064,-0.84905 h 0.849049 v 3.391115 h 0.421983 q 0.177945,0 0.299964,-0.127103 0.127103,-0.127104 0.127103,-0.299964 v -2.964048 h 0.843966 v 3.391115 h 0.427066 q 0.172861,0 0.29488,-0.127103 0.127103,-0.127104 0.127103,-0.299964 v -2.964048 h 0.84905 v 2.364121 q 0,0.594843 -0.427067,1.02191 -0.421983,0.427067 -1.02191,0.427067 h -1.093088 v -0.132188 q -0.244038,0.132188 -0.599927,0.132188 h -1.098172 z m 5.084129,3.813098 v -3.813098 h 0.198281 l 2.343784,2.120083 v -2.120083 h 0.427067 v 3.813098 h -0.193197 l -2.348868,-2.120082 v 2.120082 z"
   id="text1"
   style="font-size:5.08413px;font-family:Silom;-inkscape-font-specification:'Silom, Normal';stroke-width:0.0264798"
   aria-label="UNKNOWN" /></svg>
