<?xml version="1.0" encoding="UTF-8" standalone="no"?>
<!-- Uploaded to: SVG Repo, www.svgrepo.com, Generator: SVG Repo Mixer Tools -->

<svg
   fill="#000000"
   width="800"
   height="800"
   viewBox="0 0 32 32"
   version="1.1"
   xml:space="preserve"
   id="svg1"
   sodipodi:docname="among-us-online-game-computer-crewmate-svgrepo-com.svg"
   inkscape:version="1.4.2 (ebf0e940, 2025-05-08)"
   xmlns:inkscape="http://www.inkscape.org/namespaces/inkscape"
   xmlns:sodipodi="http://sodipodi.sourceforge.net/DTD/sodipodi-0.dtd"
   xmlns="http://www.w3.org/2000/svg"
   xmlns:svg="http://www.w3.org/2000/svg"><sodipodi:namedview
   id="namedview1"
   pagecolor="#ffffff"
   bordercolor="#000000"
   borderopacity="0.25"
   inkscape:showpageshadow="2"
   inkscape:pageopacity="0.0"
   inkscape:pagecheckerboard="0"
   inkscape:deskcolor="#d1d1d1"
   inkscape:zoom="0.86"
   inkscape:cx="397.67442"
   inkscape:cy="397.67442"
   inkscape:window-width="2560"
   inkscape:window-height="1381"
   inkscape:window-x="2560"
   inkscape:window-y="31"
   inkscape:window-maximized="1"
   inkscape:current-layer="svg1" /><defs
   id="defs1" />

<style
   type="text/css"
   id="style1">
	.st0{display:none;}
</style>

























<g
   id="Crewmates"
   transform="matrix(0.82133456,0,0,0.82133456,2.733262,0.19677091)">

<path
   d="M 25.965,21.1733 C 25.9756,21.1149 26,21.0615 26,21 V 14.9691 C 26.62,14.1364 27,13.1156 27,12 27,10.611 26.4288,9.3545 25.5112,8.4475 24.4882,5.8477 21.9582,4 19,4 H 15 C 11.1406,4 8,7.1401 8,11 H 7 c -1.6543,0 -3,1.3457 -3,3 v 8 c 0,1.6543 1.3457,3 3,3 h 1.1011 c 0.4647,2.2793 2.4845,4 4.8989,4 h 4 c 0.7711,0 1.468,-0.3005 2,-0.7803 0.0171,0.0154 0.0358,0.0289 0.0532,0.0439 C 19.171,28.6848 19.5409,29 20,29 h 5 c 1.6543,0 3,-1.3457 3,-3 v -2 c 0,-1.3148 -0.8555,-2.4224 -2.035,-2.8267 z M 8,23 H 7 C 6.4482,23 6,22.5513 6,22 V 14 C 6,13.4487 6.4482,13 7,13 H 8 Z M 25,12 c 0,1.6543 -1.3457,3 -3,3 h -4 c -1.6543,0 -3,-1.3457 -3,-3 0,-1.6543 1.3457,-3 3,-3 h 4 c 1.6543,0 3,1.3457 3,3 z m 1,14 c 0,0.5513 -0.4482,1 -1,1 h -4 c -0.5518,0 -1,-0.4487 -1,-1 v -2 c 0,-1.6543 -1.3457,-3 -3,-3 h -1 c -0.5527,0 -1,0.4478 -1,1 0,0.5522 0.4473,1 1,1 h 1 c 0.5518,0 1,0.4487 1,1 v 2 c 0,0.5513 -0.4482,1 -1,1 h -4 c -1.6543,0 -3,-1.3457 -3,-3 V 12 11 c 0,-2.7568 2.2432,-5 5,-5 h 4 c 1.1193,0 2.1489,0.3755 2.9824,1 H 18 c -2.7568,0 -5,2.2432 -5,5 0,2.7568 2.2432,5 5,5 h 4 c 0.7118,0 1.3864,-0.1545 2,-0.4238 V 21 h -1 c -0.5527,0 -1,0.4478 -1,1 0,0.5522 0.4473,1 1,1 h 2 c 0.5518,0 1,0.4487 1,1 z M 22,11 c 0,-0.5523 0.4477,-1 1,-1 0.5523,0 1,0.4477 1,1 0,0.5522 -0.4477,1 -1,1 -0.5523,0 -1,-0.4478 -1,-1 z m -4,-1 h 2 c 0.5527,0 1,0.4478 1,1 0,0.5522 -0.4473,1 -1,1 h -2 c -0.5527,0 -1,-0.4478 -1,-1 0,-0.5522 0.4473,-1 1,-1 z"
   id="path1" />

</g><path
   d="M 5.0731211,25.738453 H 4.5495695 q -0.069386,-0.529859 -0.4983201,-0.529859 -0.2775454,0 -0.4163181,0.132465 -0.1387727,0.132465 -0.1387727,0.397394 0,0.195544 0.1513884,0.372163 l 1.1164894,1.248955 q 0.3090847,0.346931 0.3090847,0.744326 v 0.258622 q 0,0.428934 -0.3090847,0.744326 Q 4.4549518,29.41593 4.0197101,29.41593 H 3.4961586 q -0.5235515,0 -0.7884812,-0.258622 -0.2649297,-0.26493 -0.2649297,-0.794789 h 0.5298594 q 0,0.05677 0,0.08831 0,0.214467 0.1640041,0.328008 0.1640041,0.113541 0.3595474,0.113541 0.2775454,0 0.3973945,-0.132465 0.126157,-0.138772 0.126157,-0.397394 0,-0.201851 -0.1513884,-0.372163 L 2.7518323,26.741401 Q 2.4427477,26.400778 2.4427477,25.997075 v -0.258622 q 0,-0.428933 0.3090846,-0.738018 0.3090847,-0.315393 0.7443263,-0.315393 h 0.5235515 q 0.9903325,0 1.053411,1.053411 z m 1.5769636,3.677477 v -4.207336 h -1.053411 v -0.523552 h 3.153925 v 0.523552 h -1.053411 v 4.207336 z m 2.6240657,0 v -3.677477 q 0,-0.435241 0.3090847,-0.744326 0.3153925,-0.309085 0.7443259,-0.309085 h 1.053411 q 0.428934,0 0.738019,0.315393 0.309084,0.309085 0.309084,0.738018 v 3.677477 h -1.047103 v -2.100514 h -1.053411 v 2.100514 z m 1.0534106,-2.630374 h 1.053411 v -1.047103 q 0,-0.220774 -0.157696,-0.372163 -0.151388,-0.157696 -0.372163,-0.157696 -0.214467,0 -0.372163,0.157696 -0.151389,0.151389 -0.151389,0.372163 z m 3.153924,2.630374 v -4.730888 h 0.246006 l 2.907919,2.630374 v -2.630374 h 0.529859 v 4.730888 h -0.239698 l -2.914227,-2.630374 v 2.630374 z m 4.730887,0 v -4.730888 h 2.106822 q 0.428934,0 0.738019,0.315393 0.309084,0.309085 0.309084,0.738018 v 2.624066 q 0,0.428934 -0.309084,0.744326 -0.309085,0.309085 -0.738019,0.309085 z m 1.053411,-0.523552 h 0.523552 q 0.220775,0 0.372163,-0.157696 0.157696,-0.157696 0.157696,-0.372163 v -2.624066 q 0,-0.220774 -0.157696,-0.372163 -0.151388,-0.157696 -0.372163,-0.157696 h -0.523552 z m 3.153924,0.523552 v -4.730888 h 2.106822 q 0.428934,0 0.738018,0.315393 0.309085,0.309085 0.309085,0.738018 v 0.258622 q 0,0.466781 -0.26493,0.731711 -0.258622,0.258622 -0.782173,0.3217 0.523551,0 0.782173,0.3217 0.26493,0.315393 0.26493,0.731711 v 0.258622 q 0,0.428934 -0.309085,0.744326 -0.309084,0.309085 -0.738018,0.309085 z m 1.053411,-2.630374 h 0.523551 q 0.220775,0 0.372164,-0.151388 0.157696,-0.157696 0.157696,-0.372163 v -0.523552 q 0,-0.220774 -0.157696,-0.372163 -0.151389,-0.157696 -0.372164,-0.157696 h -0.523551 z m 0,2.106822 h 0.523551 q 0.220775,0 0.372164,-0.157696 0.157696,-0.157696 0.157696,-0.372163 v -0.523552 q 0,-0.523551 -0.52986,-0.523551 h -0.523551 z m 4.207334,0.523552 v -2.100514 q -1.053411,-0.126157 -1.053411,-1.053411 v -1.576963 h 1.053411 v 1.576963 q 0,0.214467 0.151389,0.372163 0.157696,0.151388 0.372163,0.151388 0.220775,0 0.372163,-0.151388 0.157696,-0.157696 0.157696,-0.372163 v -1.576963 h 1.047103 v 1.576963 q 0,0.927254 -1.047103,1.053411 v 2.100514 z"
   id="text1"
   style="font-size:6.30785px;font-family:Silom;-inkscape-font-specification:'Silom, Normal';stroke-width:0.0328534"
   aria-label="STANDBY" /></svg>
