<?xml version="1.0" encoding="UTF-8" standalone="no"?>
<!-- Uploaded to: SVG Repo, www.svgrepo.com, Generator: SVG Repo Mixer Tools -->

<svg
   fill="#000000"
   width="800"
   height="800"
   viewBox="0 0 32 32"
   version="1.1"
   xml:space="preserve"
   id="svg1"
   xmlns="http://www.w3.org/2000/svg"
   xmlns:svg="http://www.w3.org/2000/svg"><defs
   id="defs1" />

<style
   type="text/css"
   id="style1">
	.st0{display:none;}
</style>

























<g
   id="g1"
   transform="matrix(0.82133456,0,0,0.82133456,2.733262,0.19677091)"><g
     id="Crewmates">

<path
   d="M 25.965,21.1733 C 25.9756,21.1149 26,21.0615 26,21 V 14.9691 C 26.62,14.1364 27,13.1156 27,12 27,10.611 26.4288,9.3545 25.5112,8.4475 24.4882,5.8477 21.9582,4 19,4 H 15 C 11.1406,4 8,7.1401 8,11 H 7 c -1.6543,0 -3,1.3457 -3,3 v 8 c 0,1.6543 1.3457,3 3,3 h 1.1011 c 0.4647,2.2793 2.4845,4 4.8989,4 h 4 c 0.7711,0 1.468,-0.3005 2,-0.7803 0.0171,0.0154 0.0358,0.0289 0.0532,0.0439 C 19.171,28.6848 19.5409,29 20,29 h 5 c 1.6543,0 3,-1.3457 3,-3 v -2 c 0,-1.3148 -0.8555,-2.4224 -2.035,-2.8267 z M 8,23 H 7 C 6.4482,23 6,22.5513 6,22 V 14 C 6,13.4487 6.4482,13 7,13 H 8 Z M 25,12 c 0,1.6543 -1.3457,3 -3,3 h -4 c -1.6543,0 -3,-1.3457 -3,-3 0,-1.6543 1.3457,-3 3,-3 h 4 c 1.6543,0 3,1.3457 3,3 z m 1,14 c 0,0.5513 -0.4482,1 -1,1 h -4 c -0.5518,0 -1,-0.4487 -1,-1 v -2 c 0,-1.6543 -1.3457,-3 -3,-3 h -1 c -0.5527,0 -1,0.4478 -1,1 0,0.5522 0.4473,1 1,1 h 1 c 0.5518,0 1,0.4487 1,1 v 2 c 0,0.5513 -0.4482,1 -1,1 h -4 c -1.6543,0 -3,-1.3457 -3,-3 V 12 11 c 0,-2.7568 2.2432,-5 5,-5 h 4 c 1.1193,0 2.1489,0.3755 2.9824,1 H 18 c -2.7568,0 -5,2.2432 -5,5 0,2.7568 2.2432,5 5,5 h 4 c 0.7118,0 1.3864,-0.1545 2,-0.4238 V 21 h -1 c -0.5527,0 -1,0.4478 -1,1 0,0.5522 0.4473,1 1,1 h 2 c 0.5518,0 1,0.4487 1,1 z M 22,11 c 0,-0.5523 0.4477,-1 1,-1 0.5523,0 1,0.4477 1,1 0,0.5522 -0.4477,1 -1,1 -0.5523,0 -1,-0.4478 -1,-1 z m -4,-1 h 2 c 0.5527,0 1,0.4478 1,1 0,0.5522 -0.4473,1 -1,1 h -2 c -0.5527,0 -1,-0.4478 -1,-1 0,-0.5522 0.4473,-1 1,-1 z"
   id="path1" />

</g><text
     xml:space="preserve"
     style="font-style:normal;font-variant:normal;font-weight:normal;font-stretch:normal;font-size:7.68px;font-family:Silom;-inkscape-font-specification:'Silom, Normal';font-variant-ligatures:normal;font-variant-caps:normal;font-variant-numeric:normal;font-variant-east-asian:normal;text-align:start;writing-mode:lr-tb;direction:ltr;text-anchor:start;fill:#000000;stroke-width:0.04"
     x="-0.99115014"
     y="35.575222"
     id="text1"><tspan
       id="tspan1"
       style="font-style:normal;font-variant:normal;font-weight:normal;font-stretch:normal;font-size:7.68px;font-family:Silom;-inkscape-font-specification:'Silom, Normal';font-variant-ligatures:normal;font-variant-caps:normal;font-variant-numeric:normal;font-variant-east-asian:normal;stroke-width:0.04"
       x="-0.99115014"
       y="35.575222">STANDBY</tspan></text></g></svg>
