<?xml version="1.0" encoding="UTF-8" standalone="no"?>
<svg
   version="1.1"
   viewBox="-5.0 -10.0 110.0 135.0"
   id="svg12"
   sodipodi:docname="auto_check.svg"
   inkscape:version="1.4.2 (ebf0e940, 2025-05-08)"
   xmlns:inkscape="http://www.inkscape.org/namespaces/inkscape"
   xmlns:sodipodi="http://sodipodi.sourceforge.net/DTD/sodipodi-0.dtd"
   xmlns:xlink="http://www.w3.org/1999/xlink"
   xmlns="http://www.w3.org/2000/svg"
   xmlns:svg="http://www.w3.org/2000/svg">
  <defs
     id="defs12">
    <pattern
       inkscape:collect="always"
       xlink:href="#pattern6-7"
       preserveAspectRatio="xMidYMid"
       id="pattern2"
       patternTransform="translate(190,350)" />
    <pattern
       patternUnits="userSpaceOnUse"
       width="29"
       height="20"
       patternTransform="translate(190,350)"
       preserveAspectRatio="xMidYMid"
       style="fill:#000000"
       id="pattern6-7"
       inkscape:label=""
       inkscape:collect="always"
       inkscape:isstock="true">
      <path
         style="fill:none;stroke:#000000;stroke-width:10;stroke-linecap:butt;stroke-dasharray:none;paint-order:stroke markers fill;stop-color:#000000"
         d="M 0,5 C 19,5 10,15 29,15"
         id="path4-2"
         sodipodi:nodetypes="cc" />
    </pattern>
  </defs>
  <sodipodi:namedview
     id="namedview12"
     pagecolor="#505050"
     bordercolor="#eeeeee"
     borderopacity="1"
     inkscape:showpageshadow="0"
     inkscape:pageopacity="0"
     inkscape:pagecheckerboard="0"
     inkscape:deskcolor="#505050"
     showguides="true"
     inkscape:zoom="3.9637804"
     inkscape:cx="-11.857367"
     inkscape:cy="28.255854"
     inkscape:window-width="2560"
     inkscape:window-height="1381"
     inkscape:window-x="2560"
     inkscape:window-y="31"
     inkscape:window-maximized="1"
     inkscape:current-layer="g1" />
  <g
     id="g1"
     transform="translate(0,-12.05075)">
    <g
       id="g12"
       transform="translate(8.5e-5,7.5005)">
      <path
         d="M 96.941,78.398 H 77.757 c -0.45312,0 -0.875,-0.23047 -1.1211,-0.61328 -0.24609,-0.38281 -0.27734,-0.86328 -0.08594,-1.2773 1.8008,-3.875 2.7148,-8.0195 2.7148,-12.324 0,-16.137 -13.129,-29.266 -29.266,-29.266 -16.137,0 -29.266,13.129 -29.266,29.266 0,4.3008 0.91406,8.4453 2.7148,12.324 0.19141,0.41016 0.16016,0.89453 -0.08594,1.2773 -0.24609,0.38281 -0.66797,0.61328 -1.1211,0.61328 h -19.184 c -0.60156,0 -1.125,-0.40234 -1.2852,-0.98047 -1.1758,-4.3008 -1.7734,-8.75 -1.7734,-13.234 0,-27.57 22.43,-50 50,-50 6.168,0 12.188,1.1094 17.902,3.3008 0.58984,0.22656 0.94141,0.83594 0.83594,1.4609 -0.10547,0.62891 -0.15625,1.2695 -0.15625,1.9102 0,6.3945 5.2031,11.598 11.598,11.598 2.0156,0 4.0039,-0.52734 5.7461,-1.5234 0.55078,-0.31641 1.2422,-0.19922 1.6602,0.27734 8.0078,9.1172 12.418,20.828 12.418,32.973 0,4.4805 -0.59766,8.9336 -1.7734,13.234 -0.16016,0.57813 -0.68359,0.98047 -1.2852,0.98047 z M 79.769,75.7378 h 16.145 c 0.94531,-3.7695 1.4219,-7.6484 1.4219,-11.551 0,-11.152 -3.9258,-21.918 -11.078,-30.43 -1.8945,0.89453 -3.9766,1.3594 -6.082,1.3594 -7.8633,0 -14.258,-6.3984 -14.258,-14.258 0,-0.41406 0.01953,-0.83203 0.05469,-1.2461 -5.1133,-1.8359 -10.48,-2.7617 -15.973,-2.7617 -26.102,0 -47.336,21.234 -47.336,47.336 0,3.9062 0.48047,7.7891 1.4219,11.551 h 16.145 c -1.4297,-3.6758 -2.1562,-7.5547 -2.1562,-11.551 0,-17.605 14.32,-31.926 31.926,-31.926 17.606,0 31.926,14.32 31.926,31.926 0,4 -0.72266,7.875 -2.1562,11.555 z"
         fill-rule="evenodd"
         id="path1" />
      <path
         d="m 50,34.922 c -0.73438,0 -1.332,-0.59766 -1.332,-1.332 V 15.52 c 0,-0.73438 0.59766,-1.332 1.332,-1.332 0.73434,0 1.332,0.59766 1.332,1.332 v 18.07 c 0,0.73438 -0.59766,1.332 -1.332,1.332 z"
         fill-rule="evenodd"
         id="path2" />
      <path
         d="m 69.941,42.316 c -0.22656,0 -0.45312,-0.05859 -0.66406,-0.17969 -0.42578,-0.24609 -0.66797,-0.69531 -0.66797,-1.1562 0,-0.22656 0.05859,-0.45312 0.17969,-0.66406 l 4.8359,-8.375 c 0.36719,-0.63672 1.1797,-0.85547 1.8164,-0.48828 0.42578,0.24609 0.66797,0.69531 0.66797,1.1562 0,0.22656 -0.05859,0.45312 -0.17969,0.66406 l -4.8359,8.375 c -0.24609,0.42578 -0.69531,0.66406 -1.1562,0.66406 z"
         fill-rule="evenodd"
         id="path3" />
      <path
         d="m 80.012,59.535 c -0.46094,0 -0.90625,-0.23828 -1.1562,-0.66797 -0.36719,-0.63672 -0.14844,-1.4492 0.48828,-1.8164 l 16.195,-9.3477 c 0.63672,-0.36719 1.4492,-0.14844 1.8164,0.48828 0.36719,0.63672 0.14844,1.4492 -0.48828,1.8164 l -16.195,9.3477 C 80.46126,59.4764 80.2347,59.535 80.00814,59.535 Z"
         fill-rule="evenodd"
         id="path4" />
      <path
         d="m 19.988,59.535 c -0.22656,0 -0.45312,-0.05859 -0.66406,-0.17969 l -16.195,-9.3477 c -0.63672,-0.36719 -0.85547,-1.1836 -0.48828,-1.8164 0.36719,-0.63672 1.1836,-0.85156 1.8164,-0.48828 l 16.195,9.3477 c 0.63672,0.36719 0.85547,1.1797 0.48828,1.8164 -0.24609,0.42578 -0.69531,0.66797 -1.1562,0.66797 z"
         fill-rule="evenodd"
         id="path5" />
      <path
         d="m 30.059,42.316 c -0.46094,0 -0.90625,-0.23828 -1.1562,-0.66406 l -9.1367,-15.824 c -0.36719,-0.63672 -0.14844,-1.4492 0.48828,-1.8164 0.63672,-0.36719 1.4492,-0.14844 1.8164,0.48828 l 9.1367,15.824 c 0.36719,0.63672 0.14844,1.4492 -0.48828,1.8164 -0.21094,0.12109 -0.4375,0.17969 -0.66406,0.17969 z"
         fill-rule="evenodd"
         id="path6" />
      <path
         d="m 54.961,93.398 h -9.918 c -0.64453,0 -1.1953,-0.46094 -1.3086,-1.0938 L 42.7305,86.769 c -1.375,-0.58594 -2.6719,-1.3359 -3.8711,-2.2383 l -5.2969,1.8984 c -0.60547,0.21875 -1.2812,-0.03125 -1.6016,-0.58594 l -4.957,-8.5898 c -0.32031,-0.55859 -0.19922,-1.2656 0.29297,-1.6797 l 4.293,-3.6367 c -0.08984,-0.74219 -0.13672,-1.4883 -0.13672,-2.2344 0,-0.7461 0.04687,-1.4961 0.13672,-2.2344 l -4.293,-3.6367 c -0.49219,-0.41406 -0.61328,-1.125 -0.29297,-1.6797 l 4.9609,-8.5898 c 0.32031,-0.55859 0.99609,-0.80859 1.6016,-0.58594 l 5.2969,1.8984 c 1.1992,-0.90234 2.4961,-1.6523 3.8711,-2.2383 l 1.0039,-5.5352 c 0.11328,-0.63281 0.66797,-1.0938 1.3086,-1.0938 h 9.918 c 0.64453,0 1.1953,0.46094 1.3086,1.0938 l 1.0039,5.5352 c 1.375,0.58594 2.6719,1.3359 3.8711,2.2383 l 5.2969,-1.8984 c 0.60547,-0.21875 1.2773,0.03125 1.6016,0.58594 l 4.9609,8.5898 c 0.32031,0.55859 0.19922,1.2656 -0.29297,1.6797 l -4.293,3.6367 c 0.08984,0.74219 0.13281,1.4922 0.13281,2.2344 0,0.74609 -0.04688,1.4922 -0.13672,2.2344 l 4.293,3.6367 c 0.49219,0.41797 0.61328,1.125 0.29297,1.6797 l -4.9609,8.5898 c -0.32422,0.55859 -1,0.80469 -1.6016,0.58594 l -5.2969,-1.8984 c -1.1992,0.90234 -2.4922,1.6523 -3.8711,2.2383 l -1.0039,5.5352 c -0.11328,0.63281 -0.66406,1.0938 -1.3086,1.0938 z m -8.8086,-2.6602 h 7.6953 l 0.9375,-5.1641 c 0.08203,-0.46094 0.40234,-0.84375 0.83984,-1.0078 1.6055,-0.60938 3.0977,-1.4727 4.4336,-2.5625 0.36328,-0.29688 0.85156,-0.37891 1.293,-0.22266 l 4.9453,1.7734 3.8477,-6.6641 -4.0078,-3.3945 c -0.35547,-0.30469 -0.52734,-0.76953 -0.45312,-1.2305 0.13672,-0.84375 0.20703,-1.707 0.20703,-2.5625 0,-0.8555 -0.07031,-1.7188 -0.20703,-2.5625 -0.07422,-0.46094 0.09766,-0.92578 0.45312,-1.2305 l 4.0078,-3.3945 -3.8477,-6.6641 -4.9453,1.7734 c -0.44141,0.15625 -0.93359,0.07422 -1.293,-0.22266 -1.3359,-1.0938 -2.8281,-1.957 -4.4336,-2.5625 -0.4375,-0.16406 -0.75391,-0.54688 -0.83984,-1.0078 l -0.9375,-5.1641 h -7.6953 l -0.93359,5.1641 c -0.08203,0.46094 -0.40234,0.84375 -0.83984,1.0078 -1.6055,0.60938 -3.0977,1.4688 -4.4336,2.5625 -0.36328,0.29688 -0.85156,0.38281 -1.293,0.22266 l -4.9453,-1.7734 -3.8477,6.6641 4.0039,3.3906 c 0.35547,0.30078 0.52734,0.76953 0.45312,1.2305 -0.13672,0.84375 -0.20703,1.707 -0.20703,2.5625 0,0.8555 0.07031,1.7188 0.20703,2.5625 0.07422,0.46094 -0.09766,0.92578 -0.45312,1.2305 l -4.0039,3.3945 3.8477,6.6641 4.9453,-1.7734 c 0.44141,-0.15625 0.92969,-0.07422 1.293,0.22266 1.3359,1.0938 2.8281,1.957 4.4336,2.5625 0.4375,0.16406 0.75781,0.54688 0.83984,1.0078 l 0.93359,5.1641 z"
         fill-rule="evenodd"
         id="path7" />
      <path
         d="m 50,80.172 c -5.7734,0 -10.469,-4.6953 -10.469,-10.469 0,-5.7737 4.6953,-10.469 10.469,-10.469 5.7737,0 10.469,4.6953 10.469,10.469 0,5.7737 -4.6953,10.469 -10.469,10.469 z m 0,-18.273 c -4.3047,0 -7.8047,3.5039 -7.8047,7.8086 0,4.3047 3.5,7.8047 7.8047,7.8047 4.3047,0 7.8086,-3.5 7.8086,-7.8047 0,-4.3047 -3.5039,-7.8086 -7.8086,-7.8086 z"
         fill-rule="evenodd"
         id="path8" />
      <path
         d="m 50,71.035 c -0.24219,0 -0.48438,-0.06641 -0.70312,-0.20312 l -12.762,-7.9648 c -0.625,-0.39063 -0.8125,-1.2109 -0.42578,-1.832 0.39062,-0.62109 1.2109,-0.8125 1.8359,-0.42578 l 12.762,7.9648 c 0.625,0.39062 0.8125,1.2109 0.42578,1.832 -0.25391,0.40234 -0.6875,0.625 -1.1289,0.625 z"
         fill-rule="evenodd"
         id="path9" />
      <path
         d="m 80.176,35.117 c -7.8633,0 -14.258,-6.3984 -14.258,-14.258 0,-7.8633 6.3945,-14.258 14.258,-14.258 7.8635,0 14.258,6.3945 14.258,14.258 0,7.8635 -6.3945,14.258 -14.258,14.258 z m 0,-25.855 c -6.3945,0 -11.598,5.2031 -11.598,11.598 0,6.3949 5.2031,11.598 11.598,11.598 6.3949,0 11.598,-5.2031 11.598,-11.598 0,-6.3949 -5.2031,-11.598 -11.598,-11.598 z"
         fill-rule="evenodd"
         id="path10" />
      <path
         d="m 77.996,26.328 c -0.33984,0 -0.67969,-0.12891 -0.94141,-0.39062 l -3.9102,-3.9102 c -0.51953,-0.51953 -0.51953,-1.3633 0,-1.8828 0.51953,-0.5195 1.3633,-0.51953 1.8828,0 l 2.9727,2.9727 7.332,-7.332 c 0.51953,-0.51953 1.3633,-0.51953 1.8828,0 0.51953,0.51953 0.51953,1.3633 0,1.8828 l -8.2734,8.2734 c -0.25781,0.25781 -0.60156,0.39062 -0.94141,0.39062 z"
         fill-rule="evenodd"
         id="path11" />
    </g>
    <text
       xml:space="preserve"
       style="font-size:17.5315px;font-family:Silom;-inkscape-font-specification:'Silom, Normal';text-align:start;writing-mode:lr-tb;direction:ltr;text-anchor:start;fill-rule:evenodd;stroke-width:0.0913094;fill-opacity:1"
       x="-3.3395789"
       y="125"
       id="text12"><tspan
         sodipodi:role="line"
         id="tspan12"
         x="-3.3395789"
         y="125"
         style="stroke-width:0.0913094;fill-rule:evenodd;fill-opacity:1">AUTO CHECK</tspan></text>
  </g>
</svg>
