<?xml version="1.0" encoding="UTF-8" standalone="no"?>
<!-- Uploaded to: SVG Repo, www.svgrepo.com, Generator: SVG Repo Mixer Tools -->

<svg
   fill="#000000"
   width="800px"
   height="800px"
   viewBox="0 0 32 32"
   version="1.1"
   xml:space="preserve"
   id="svg1"
   sodipodi:docname="hat-steam-among-us-online-game-svgrepo-com.svg"
   inkscape:version="1.4.2 (ebf0e940, 2025-05-08)"
   xmlns:inkscape="http://www.inkscape.org/namespaces/inkscape"
   xmlns:sodipodi="http://sodipodi.sourceforge.net/DTD/sodipodi-0.dtd"
   xmlns="http://www.w3.org/2000/svg"
   xmlns:svg="http://www.w3.org/2000/svg"><defs
   id="defs1" /><sodipodi:namedview
   id="namedview1"
   pagecolor="#ffffff"
   bordercolor="#000000"
   borderopacity="0.25"
   inkscape:showpageshadow="2"
   inkscape:pageopacity="0.0"
   inkscape:pagecheckerboard="0"
   inkscape:deskcolor="#d1d1d1"
   inkscape:zoom="1.21"
   inkscape:cx="565.28926"
   inkscape:cy="398.34711"
   inkscape:window-width="2560"
   inkscape:window-height="1381"
   inkscape:window-x="2560"
   inkscape:window-y="31"
   inkscape:window-maximized="1"
   inkscape:current-layer="svg1" />

<style
   type="text/css"
   id="style1">
	.st0{display:none;}
</style>

<g
   class="st0"
   id="etc" />

<g
   id="Hats"
   transform="matrix(0.89035813,0,0,0.89035813,1.7487604,-1.753719)">

<path
   d="M 18.3682,12 H 17 V 9.9743 C 18.4666,9.9034 20.7736,9.6409 21.707,8.707 23.9736,6.4404 24,4.0986 24,4 24,3.4478 23.5527,3 23,3 22.8682,3 19.7393,3.0127 17.5527,4.1055 16.8648,4.4496 16.3671,4.9606 16,5.5224 15.6329,4.9606 15.1352,4.4496 14.4473,4.1055 12.2607,3.0127 9.1318,3 9,3 8.4473,3 8,3.4478 8,4 8,4.0986 8.0264,6.4404 10.293,8.707 11.2264,9.6409 13.5334,9.9034 15,9.9743 V 12 H 13.6318 C 9.4238,12 6,15.4233 6,19.6313 V 29 c 0,0.5522 0.4473,1 1,1 h 18 c 0.5527,0 1,-0.4478 1,-1 V 19.6313 C 26,15.4233 22.5762,12 18.3682,12 Z M 18.4473,5.8945 C 19.4541,5.3911 20.7911,5.1709 21.7549,5.0747 21.5322,5.6826 21.1055,6.48 20.293,7.293 19.9922,7.5943 18.6416,7.8662 17.1319,7.9629 17.2939,7.2231 17.6523,6.292 18.4473,5.8945 Z M 11.707,7.293 C 10.8935,6.479 10.4677,5.6812 10.2441,5.0747 c 0.9648,0.0962 2.3018,0.3159 3.3086,0.8198 0.7871,0.3931 1.1465,1.3267 1.3105,2.0679 C 13.3555,7.8657 12.0078,7.5938 11.707,7.293 Z M 24,28 H 8 V 19.6313 C 8,16.5264 10.5264,14 13.6318,14 h 4.7363 C 21.4736,14 24,16.5264 24,19.6313 Z M 18,16 h -4 c -2.7568,0 -5,2.2432 -5,5 0,2.7568 2.2432,5 5,5 h 4 c 2.7568,0 5,-2.2432 5,-5 0,-2.7568 -2.2432,-5 -5,-5 z m 0,8 h -4 c -1.6543,0 -3,-1.3457 -3,-3 0,-1.6543 1.3457,-3 3,-3 h 4 c 1.6543,0 3,1.3457 3,3 0,1.6543 -1.3457,3 -3,3 z m 2,-4 c 0,0.5522 -0.4477,1 -1,1 -0.5523,0 -1,-0.4478 -1,-1 0,-0.5523 0.4477,-1 1,-1 0.5523,0 1,0.4477 1,1 z m -3,0 c 0,0.5522 -0.4473,1 -1,1 h -2 c -0.5527,0 -1,-0.4478 -1,-1 0,-0.5522 0.4473,-1 1,-1 h 2 c 0.5527,0 1,0.4478 1,1 z"
   id="path1" />

</g>

<g
   id="Crewmates" />

<g
   id="ejection" />

<g
   id="sabotage" />

<g
   id="Die" />

<g
   id="Die_2" />

<g
   id="ghost" />

<g
   id="impostor" />

<g
   id="pets" />

<g
   id="crewmates" />

<g
   id="Guides" />

<path
   d="m 1.1333034,30.049587 v -2.961319 q 0,-0.350482 0.248893,-0.599375 Q 1.6361689,26.24 1.9815716,26.24 h 0.8482681 q 0.3454026,0 0.5942957,0.253972 0.248893,0.248893 0.248893,0.594296 v 2.961319 H 2.8298397 V 28.35813 H 1.9815716 v 1.691457 z m 0.8482682,-2.11813 h 0.8482681 v -0.843189 q 0,-0.177781 -0.1269862,-0.299688 -0.1219068,-0.126986 -0.2996876,-0.126986 -0.1727013,0 -0.2996875,0.126986 -0.1219068,0.121907 -0.1219068,0.299688 z M 6.2178321,26.24 h 0.8431887 v 2.961319 q 0,0.345403 -0.248893,0.599375 -0.2488931,0.248893 -0.5942957,0.248893 H 5.3695639 q -0.3454026,0 -0.5993751,-0.248893 -0.248893,-0.248893 -0.248893,-0.599375 V 26.24 h 0.8482681 v 2.961319 q 0,0.172701 0.1219068,0.299688 0.1269863,0.126986 0.2996876,0.126986 0.1777808,0 0.2996876,-0.126986 0.1269862,-0.126987 0.1269862,-0.299688 z M 8.335962,30.049587 V 26.661594 H 7.4876938 V 26.24 h 2.5397252 v 0.421594 H 9.1791507 v 3.387993 z M 11.297282,26.24 h 0.848268 q 0.345402,0 0.594295,0.253972 0.248894,0.248893 0.248894,0.594296 v 2.113051 q 0,0.345403 -0.248894,0.599375 -0.248893,0.248893 -0.594295,0.248893 h -0.848268 q -0.345403,0 -0.599375,-0.248893 -0.248894,-0.248893 -0.248894,-0.599375 v -2.113051 q 0,-0.350482 0.248894,-0.599375 Q 10.951879,26.24 11.297282,26.24 Z m 0,0.848268 v 2.113051 q 0,0.172701 0.121906,0.299688 0.126987,0.126986 0.299688,0.126986 0.177781,0 0.299688,-0.126986 0.126986,-0.126987 0.126986,-0.299688 v -2.113051 q 0,-0.177781 -0.126986,-0.299688 -0.121907,-0.126986 -0.299688,-0.126986 -0.172701,0 -0.299688,0.126986 -0.121906,0.121907 -0.121906,0.299688 z m 6.349312,2.113051 q -0.0508,0.848268 -0.843189,0.848268 h -0.848268 q -0.345403,0 -0.599375,-0.248893 -0.248894,-0.248893 -0.248894,-0.599375 v -2.113051 q 0,-0.345403 0.243814,-0.594296 Q 15.599575,26.24 15.955137,26.24 h 0.848268 q 0.797473,0 0.843189,0.848268 h -0.421595 q -0.05079,-0.426674 -0.421594,-0.426674 h -0.426674 q -0.172701,0 -0.299688,0.126986 -0.121906,0.121907 -0.121906,0.299688 v 2.113051 q 0,0.172701 0.121906,0.299688 0.126987,0.126986 0.299688,0.126986 h 0.426674 q 0.375879,0 0.421594,-0.426674 z m 0.848266,0.848268 V 26.24 h 0.848269 v 1.691457 h 0.848268 V 26.24 h 0.843188 v 3.809587 H 20.191397 V 28.35813 h -0.848268 v 1.691457 z m 3.387993,0 V 26.24 h 2.118131 v 0.421594 h -1.269863 v 1.269863 h 0.848269 v 0.426673 h -0.848269 v 1.269863 h 1.269863 v 0.421594 z m 5.501046,-0.848268 q -0.05079,0.848268 -0.843189,0.848268 h -0.848268 q -0.345402,0 -0.599375,-0.248893 -0.248893,-0.248893 -0.248893,-0.599375 v -2.113051 q 0,-0.345403 0.243814,-0.594296 Q 25.336881,26.24 25.692442,26.24 h 0.848268 q 0.797474,0 0.843189,0.848268 h -0.421594 q -0.0508,-0.426674 -0.421595,-0.426674 h -0.426673 q -0.172702,0 -0.299688,0.126986 -0.121907,0.121907 -0.121907,0.299688 v 2.113051 q 0,0.172701 0.121907,0.299688 0.126986,0.126986 0.299688,0.126986 h 0.426673 q 0.37588,0 0.421595,-0.426674 z m 0.848266,0.848268 V 26.24 h 0.848268 v 1.554311 L 30.451885,26.24 h 0.746679 l -1.696536,1.904793 1.696536,1.904794 h -0.848268 l -1.269863,-1.483199 v 1.483199 z"
   id="text1"
   style="font-size:5.07945px;font-family:Silom;-inkscape-font-specification:'Silom, Normal';stroke-width:0.0264555"
   aria-label="AUTO CHECK" /></svg>
