<?xml version="1.0" encoding="UTF-8" standalone="no"?>
<!-- Uploaded to: SVG Repo, www.svgrepo.com, Generator: SVG Repo Mixer Tools -->

<svg
   fill="#000000"
   width="800px"
   height="800px"
   viewBox="0 0 32 32"
   version="1.1"
   xml:space="preserve"
   id="svg1"
   sodipodi:docname="impostor-among-us-sabotage-suspisious-svgrepo-com.svg"
   inkscape:version="1.4.2 (ebf0e940, 2025-05-08)"
   xmlns:inkscape="http://www.inkscape.org/namespaces/inkscape"
   xmlns:sodipodi="http://sodipodi.sourceforge.net/DTD/sodipodi-0.dtd"
   xmlns="http://www.w3.org/2000/svg"
   xmlns:svg="http://www.w3.org/2000/svg"><defs
   id="defs1" /><sodipodi:namedview
   id="namedview1"
   pagecolor="#ffffff"
   bordercolor="#000000"
   borderopacity="0.25"
   inkscape:showpageshadow="2"
   inkscape:pageopacity="0.0"
   inkscape:pagecheckerboard="0"
   inkscape:deskcolor="#d1d1d1"
   inkscape:zoom="0.65"
   inkscape:cx="398.46154"
   inkscape:cy="398.46154"
   inkscape:window-width="2560"
   inkscape:window-height="1381"
   inkscape:window-x="2560"
   inkscape:window-y="31"
   inkscape:window-maximized="1"
   inkscape:current-layer="svg1" />

<style
   type="text/css"
   id="style1">
	.st0{display:none;}
</style>

<g
   class="st0"
   id="etc" />

<g
   id="Hats" />

<g
   id="Crewmates" />

<g
   id="ejection" />

<g
   id="sabotage" />

<g
   id="Die" />

<g
   id="Die_2" />

<g
   id="ghost" />

<g
   id="impostor"
   transform="matrix(0.84493782,0,0,0.84493782,2.5866789,-0.72089548)">

<path
   d="m 17.2929,7.2929 c 0.3905,-0.3906 1.0237,-0.3906 1.4142,0 0.3906,0.3905 0.3906,1.0237 0,1.4142 -0.3905,0.3905 -1.0237,0.3905 -1.4142,0 -0.3906,-0.3905 -0.3906,-1.0237 0,-1.4142 z m -1.9999,2.0001 -1,1 c -0.3906,0.3906 -0.3906,1.0234 0,1.4141 C 14.4883,11.9023 14.7441,12 15,12 c 0.2559,0 0.5117,-0.0977 0.707,-0.293 l 1,-1 c 0.3906,-0.3906 0.3906,-1.0234 0,-1.4141 C 16.3164,8.9022 15.6836,8.9023 15.293,9.293 Z M 27,20 v 7 1.1733 C 27,29.7319 25.7319,31 24.1733,31 H 21.8266 C 20.2681,31 19,29.7319 19,28.1733 v -2.1951 c -0.3607,0.084 -0.6946,0.1289 -1,0.1461 v 2.049 C 18,29.7319 16.7319,31 15.1733,31 H 12.8266 C 11.2681,31 10,29.7319 10,28.1733 V 28 27 26 H 8.8267 C 7.2681,26 6,24.7319 6,23.1733 V 20.414 L 4.293,18.707 C 3.5537,17.9677 3.3789,16.8213 3.8374,15.7148 4.2296,14.7681 4.9665,14.1322 5.7595,14.0226 4.4821,11.783 4.8584,9.0618 6.8916,6.9414 l 3.646,-3.4854 c 1.084,-1.1323 2.3135,-1.7334 3.6235,-1.7549 1.4438,-0.0181 2.8379,0.6396 4.2007,1.9707 0.1446,0.1412 0.2191,0.3188 0.2595,0.5025 0.765,0.2061 1.4724,0.5936 2.0471,1.1738 0.7369,0.7438 1.149,1.6833 1.2728,2.6539 0.0104,-1e-4 0.021,0.0031 0.0315,0.0033 0.0399,-0.0011 0.0775,0.0085 0.1172,0.0122 0.03,0.0043 0.0599,0.0023 0.0897,0.0093 0.0157,0.0037 0.0293,0.0124 0.0447,0.0168 0.1758,0.0408 0.3455,0.1122 0.4826,0.2493 0.188,0.188 0.2804,0.4326 0.2875,0.6788 l 0.611,1.8329 c 0.1196,0.3594 0.0264,0.7559 -0.2417,1.0234 -0.1904,0.1904 -0.4463,0.293 -0.707,0.293 -0.106,0 -0.2124,-0.0166 -0.3164,-0.0513 l -1.4671,-0.489 c -0.0711,0.0829 -0.1268,0.1744 -0.2048,0.2532 l -1.073,1.0832 0.4744,1.4232 c 0.1196,0.3594 0.0264,0.7559 -0.2417,1.0234 -0.1904,0.1904 -0.4463,0.293 -0.707,0.293 -0.106,0 -0.2124,-0.0166 -0.3164,-0.0513 L 17.3076,15.1064 13.4141,19 h 2.9678 l 0.7236,-1.4473 c 0.3389,-0.6777 1.4502,-0.6777 1.7891,0 L 19.6182,19 h 1.7637 l 0.7236,-1.4473 c 0.3389,-0.6777 1.4502,-0.6777 1.7891,0 L 24.6182,19 H 26 c 0.5522,0 1,0.4478 1,1 z M 19.2476,6.7554 C 18.7651,6.2681 18.124,6 17.4429,6 16.7613,6 16.1201,6.2681 15.6377,6.7554 L 13.1221,9.295 c -1.0024,1.0122 -1.0024,2.6592 0,3.6714 0.8078,0.816 2.1135,0.9389 3.0849,0.3878 0.0281,-0.0375 0.0522,-0.0777 0.086,-0.1115 l 1.4141,-1.4141 c 0.0633,-0.0635 0.1343,-0.1163 0.2101,-0.1598 L 19.5879,9.9981 C 20.2307,8.9929 20.1187,7.6349 19.2476,6.7554 Z M 8.2563,14.0088 c 0.0283,0.0278 0.0552,0.0571 0.0801,0.0884 l 3.19,3.9623 2.4443,-2.4443 c -0.8531,-0.1829 -1.6385,-0.6046 -2.2695,-1.2417 -1.771,-1.7886 -1.771,-4.6982 0,-6.4858 L 14.2168,5.3481 C 14.7037,4.8565 15.287,4.506 15.9174,4.2802 15.3128,3.8971 14.7253,3.6855 14.1943,3.7007 13.4375,3.7134 12.6826,4.107 11.9506,4.8711 L 8.3042,8.3564 C 6.6025,10.1323 6.5713,12.3633 8.2563,14.0088 Z M 5.707,17.293 7.4141,19 H 9.7165 L 7.2592,15.9477 C 7.1746,15.9709 7.0919,16 7,16 H 6 C 5.9478,16.0342 5.6929,16.3286 5.6099,16.7207 5.5791,16.8672 5.5503,17.1362 5.707,17.293 Z M 10,24 V 21 H 8 v 2.1733 C 8,23.6294 8.3706,24 8.8267,24 Z m 15,3 v -6 h -1 -2 -3 -2 -5 v 6 1 0.1733 C 12,28.6294 12.3706,29 12.8267,29 h 2.3467 C 15.6294,29 16,28.6294 16,28.1733 V 26 c 0,-0.0606 0.0242,-0.1133 0.0345,-0.171 -0.0125,-0.0058 -0.0445,-0.0189 -0.0487,-0.0209 -0.4937,-0.2471 -0.6943,-0.8477 -0.4473,-1.3418 0.2446,-0.4878 0.8325,-0.6904 1.3247,-0.4556 0.0898,0.0376 1.4463,0.5796 3.582,-0.8428 0.4595,-0.3076 1.0801,-0.1821 1.3867,0.2773 0.3062,0.4595 0.1821,1.0806 -0.2773,1.3867 -0.1882,0.1254 -0.373,0.2387 -0.5547,0.3425 v 2.9988 C 21,28.6294 21.3706,29 21.8267,29 h 2.3467 C 24.6294,29 25,28.6294 25,28.1733 Z"
   id="path1" />

</g>

<g
   id="pets" />

<g
   id="crewmates" />

<g
   id="Guides" />

<path
   d="m 1.5270397,31.076923 v -4.959997 h 2.2088522 q 0.4497064,0 0.7737596,0.330666 0.3240531,0.324054 0.3240531,0.77376 v 0.548906 q 0,0.449707 -0.3240531,0.780373 -0.3240532,0.324054 -0.7737596,0.324054 H 2.6314658 v 2.202238 z m 1.1044261,-2.757758 h 0.5489064 q 0.2314665,0 0.3901864,-0.15872 0.1653333,-0.165333 0.1653333,-0.390187 v -0.548906 q 0,-0.231467 -0.1653333,-0.390186 Q 3.4118387,26.665832 3.1803722,26.665832 H 2.6314658 Z m 3.3066638,2.757758 v -4.959997 h 2.2088522 q 0.4497064,0 0.7737596,0.330666 0.3240531,0.324054 0.3240531,0.77376 v 0.2976 q 0,0.370346 -0.2513065,0.71424 -0.2513065,0.337279 -0.8465062,0.337279 h 0.5489064 q 0.2248532,0 0.3835731,0.165334 0.1653332,0.15872 0.1653332,0.390186 v 1.950932 H 8.1469818 v -1.653332 q 0,-0.224853 -0.1653333,-0.383573 Q 7.8229286,28.874685 7.5914621,28.874685 H 7.0425557 v 2.202238 z m 1.1044261,-2.757758 h 0.5489064 q 0.2314665,0 0.3901864,-0.15872 0.1653333,-0.165333 0.1653333,-0.390187 v -0.548906 q 0,-0.231467 -0.1653333,-0.390186 Q 7.8229286,26.665832 7.5914621,26.665832 H 7.0425557 Z m 3.8621833,2.757758 v -4.959997 h 1.097813 v 4.959997 z m 2.751146,0 v -4.959997 h 0.25792 l 2.354345,2.347732 2.347732,-2.347732 h 0.55552 v 4.959997 h -1.104426 v -3.028905 l -1.931092,1.931093 -1.924479,-1.931093 v 3.028905 z m 7.168849,0 v -4.959997 h 1.097812 v 4.959997 z m 2.751145,0 v -4.959997 h 0.25792 l 3.048745,2.757759 v -2.757759 h 0.55552 v 4.959997 h -0.251307 l -3.055358,-2.757758 v 2.757758 z m 6.61333,-2.757758 h 1.653332 v 1.653332 q 0,0.55552 -0.350506,0.83328 -0.350507,0.271146 -0.747306,0.271146 h -1.104426 q -0.449707,0 -0.780373,-0.324053 -0.324054,-0.324053 -0.324054,-0.780373 v -2.751145 q 0,-0.449706 0.31744,-0.77376 0.324053,-0.330666 0.786987,-0.330666 h 1.104426 q 1.038292,0 1.097812,1.104426 h -0.548906 q -0.06613,-0.55552 -0.548906,-0.55552 h -0.55552 q -0.224853,0 -0.390187,0.165334 -0.158719,0.158719 -0.158719,0.390186 v 2.751145 q 0,0.231467 0.158719,0.3968 0.165334,0.15872 0.390187,0.15872 0.529066,-0.02645 0.55552,-0.55552 v -1.097812 h -0.55552 z"
   id="text1"
   style="font-size:6.61333px;font-family:Silom;-inkscape-font-specification:'Silom, Normal';stroke-width:0.0344444"
   aria-label="PRIMING" /></svg>
