<?xml version="1.0" encoding="UTF-8" standalone="no"?>
<!-- Uploaded to: SVG Repo, www.svgrepo.com, Generator: SVG Repo Mixer Tools -->

<svg
   fill="#000000"
   width="800px"
   height="800px"
   viewBox="0 0 32 32"
   version="1.1"
   xml:space="preserve"
   id="svg1"
   sodipodi:docname="sabotage-among-us-online-game-suspicious-svgrepo-com.svg"
   inkscape:version="1.4.2 (ebf0e940, 2025-05-08)"
   xmlns:inkscape="http://www.inkscape.org/namespaces/inkscape"
   xmlns:sodipodi="http://sodipodi.sourceforge.net/DTD/sodipodi-0.dtd"
   xmlns="http://www.w3.org/2000/svg"
   xmlns:svg="http://www.w3.org/2000/svg"><defs
   id="defs1" /><sodipodi:namedview
   id="namedview1"
   pagecolor="#ffffff"
   bordercolor="#000000"
   borderopacity="0.25"
   inkscape:showpageshadow="2"
   inkscape:pageopacity="0.0"
   inkscape:pagecheckerboard="0"
   inkscape:deskcolor="#d1d1d1"
   inkscape:zoom="1.13"
   inkscape:cx="407.07965"
   inkscape:cy="450.44248"
   inkscape:window-width="2560"
   inkscape:window-height="1381"
   inkscape:window-x="2560"
   inkscape:window-y="31"
   inkscape:window-maximized="1"
   inkscape:current-layer="svg1" />

<style
   type="text/css"
   id="style1">
	.st0{display:none;}
</style>

<g
   class="st0"
   id="etc" />

<g
   id="Hats" />

<g
   id="Crewmates" />

<g
   id="ejection" />



<g
   id="Die" />

<g
   id="Die_2" />

<g
   id="ghost" />

<g
   id="impostor" />

<g
   id="pets" />

<g
   id="crewmates" />

<g
   id="Guides" />

<g
   id="g1"
   transform="translate(0.38938053,-0.03539823)"><g
     id="sabotage"
     transform="matrix(0.86725664,0,0,0.86725664,2.4247787,-0.4778761)">

<path
   d="m 18,15 h -4 c -2.7568,0 -5,2.2432 -5,5 0,2.7568 2.2432,5 5,5 h 4 c 2.7568,0 5,-2.2432 5,-5 0,-2.7568 -2.2432,-5 -5,-5 z m 0,8 h -4 c -1.6543,0 -3,-1.3457 -3,-3 0,-1.6543 1.3457,-3 3,-3 h 4 c 1.6543,0 3,1.3457 3,3 0,1.6543 -1.3457,3 -3,3 z m 2,-4 c 0,0.5522 -0.4477,1 -1,1 -0.5523,0 -1,-0.4478 -1,-1 0,-0.5523 0.4477,-1 1,-1 0.5523,0 1,0.4477 1,1 z m -3,0 c 0,0.5522 -0.4473,1 -1,1 h -2 c -0.5527,0 -1,-0.4478 -1,-1 0,-0.5522 0.4473,-1 1,-1 h 2 c 0.5527,0 1,0.4478 1,1 z M 28.8066,6.3354 C 28.4638,6.0166 28.1142,5.9863 27.9287,6.0024 27.5762,6.0278 27.2637,6.2368 27.1055,6.5527 26.9112,6.9414 26.666,7.2256 26.4121,7.4336 26.6094,6.1187 26.5254,4.7119 25.7314,3.6108 24.9609,2.542 23.7061,2 22,2 21.4473,2 21,2.4478 21,3 21,5.5259 20.4463,5.6206 19.1094,5.8496 18.3474,5.98 17.4096,6.1416 16.544,6.7772 15.9036,5.4335 14.7296,5 14,5 13.4473,5 13,5.4478 13,6 13,6.9688 12.7939,7.6543 12.4209,7.9302 12.3574,7.9771 12.2881,8.0127 12.2168,8.0391 12.5059,6.17 12.2471,4.7447 11.4336,3.7037 10.5508,2.5732 9.0596,2 7,2 6.6963,2 6.4102,2.1377 6.2197,2.3745 6.0303,2.6108 5.958,2.9209 6.0234,3.2168 7.0947,8.0361 5.7343,9.9443 4.2939,11.9644 3.166,13.5469 2,15.1826 2,18 2,21.6919 3.4658,23.0605 5.4951,24.9556 5.6553,25.1052 5.8297,25.2709 6,25.4316 V 29 c 0,0.5522 0.4473,1 1,1 h 18 c 0.5527,0 1,-0.4478 1,-1 V 25.3994 C 28.5983,22.627 30,17.5394 30,14 30,8.1919 29.3623,6.853 28.8066,6.3354 Z M 24,28 H 8 V 18.6313 C 8,15.5264 10.5264,13 13.6318,13 h 4.7363 C 21.4736,13 24,15.5264 24,18.6313 Z m 2,-6.0642 V 18.6314 C 26,14.4233 22.5762,11 18.3682,11 H 13.6319 C 9.4238,11 6,14.4233 6,18.6313 v 4.0406 C 4.6747,21.3695 4,20.354 4,18 4,15.8228 4.8906,14.5728 5.9229,13.1255 7.3526,11.1201 8.9581,8.8687 8.2247,4.0977 c 0.7578,0.1367 1.3047,0.4165 1.6328,0.8364 0.5674,0.7266 0.625,2.0127 0.1729,3.8232 -0.127,0.5068 0.1582,1.0259 0.6533,1.1914 0.165,0.0542 1.6475,0.5103 2.8994,-0.3911 0.5811,-0.4189 0.9854,-1.0361 1.209,-1.8442 C 14.9141,8.0063 15,8.4189 15,9 c 0,0.0494 0.0212,0.0917 0.0281,0.1392 0.0105,0.0725 0.0169,0.1438 0.0428,0.2121 0.0228,0.0602 0.0593,0.11 0.0927,0.164 0.0338,0.0552 0.0626,0.111 0.1072,0.1591 0.0488,0.0527 0.1087,0.0897 0.1678,0.131 0.0401,0.0281 0.0692,0.0667 0.1143,0.0892 0.0097,0.0048 0.0203,0.0037 0.03,0.0081 0.0604,0.028 0.1276,0.0367 0.1937,0.0522 0.0647,0.015 0.1271,0.0369 0.1922,0.0388 C 15.9797,9.9941 15.9889,10 16,10 c 0.0513,0 0.0954,-0.0217 0.1446,-0.0292 0.0703,-0.0105 0.1395,-0.0166 0.2057,-0.0416 0.0616,-0.0233 0.1125,-0.0602 0.1676,-0.0945 0.0541,-0.0334 0.1089,-0.0616 0.1563,-0.1053 0.053,-0.0491 0.0903,-0.1093 0.1317,-0.1686 0.0279,-0.0399 0.0662,-0.0687 0.0886,-0.1135 0.6504,-1.3008 1.4902,-1.4443 2.5527,-1.6265 1.6807,-0.2876 3.207,-0.8086 3.502,-3.7271 0.5273,0.1177 0.916,0.3472 1.1602,0.6865 0.54,0.7495 0.5186,2.1724 -0.0576,3.9033 C 23.9493,8.9887 24.001,9.3236 24.1885,9.5844 24.377,9.8457 24.6787,10 25,10 25.0791,10 26.4805,9.9844 27.7148,8.9561 27.8604,9.8618 28,11.4067 28,14 c 0,2.3946 -0.7254,5.538 -2,7.9358 z"
   id="path1" />

</g><text
     xml:space="preserve"
     style="font-size:6.66053px;font-family:Silom;-inkscape-font-specification:'Silom, Normal';text-align:start;writing-mode:lr-tb;direction:ltr;text-anchor:start;fill:#000000;stroke-width:0.0346903"
     x="4.4202366"
     y="31.572248"
     id="text1"><tspan
       sodipodi:role="line"
       id="tspan1"
       style="stroke-width:0.0346903"
       x="4.4202366"
       y="31.572248">FIRING</tspan></text></g></svg>
