<?xml version="1.0" encoding="UTF-8" standalone="no"?>
<!-- Uploaded to: SVG Repo, www.svgrepo.com, Generator: SVG Repo Mixer Tools -->

<svg
   fill="#000000"
   width="800px"
   height="800px"
   viewBox="0 0 32 32"
   version="1.1"
   id="svg1"
   sodipodi:docname="vent-among-us-steam-svgrepo-com.svg"
   inkscape:version="1.4.2 (ebf0e940, 2025-05-08)"
   xmlns:inkscape="http://www.inkscape.org/namespaces/inkscape"
   xmlns:sodipodi="http://sodipodi.sourceforge.net/DTD/sodipodi-0.dtd"
   xmlns="http://www.w3.org/2000/svg"
   xmlns:svg="http://www.w3.org/2000/svg">
  <defs
     id="defs1" />
  <sodipodi:namedview
     id="namedview1"
     pagecolor="#ffffff"
     bordercolor="#000000"
     borderopacity="0.25"
     inkscape:showpageshadow="2"
     inkscape:pageopacity="0.0"
     inkscape:pagecheckerboard="0"
     inkscape:deskcolor="#d1d1d1"
     inkscape:zoom="0.98"
     inkscape:cx="397.95918"
     inkscape:cy="397.95918"
     inkscape:window-width="2560"
     inkscape:window-height="1381"
     inkscape:window-x="2560"
     inkscape:window-y="31"
     inkscape:window-maximized="1"
     inkscape:current-layer="svg1" />
  <path
     d="m 24.323397,13.754356 a 0.931287,0.931287 0 1 1 -1.862574,0 0.931287,0.931287 0 0 1 1.862574,0 z M 20.59825,12.82307 h -1.862573 a 0.93128655,0.93128655 0 0 0 0,1.862573 h 1.862573 a 0.93128655,0.93128655 0 0 0 0,-1.862573 z m 8.310802,9.669548 a 0.93128655,0.93128655 0 0 1 -0.860509,0.574604 H 3.835092 A 0.93128655,0.93128655 0 0 1 3.1766724,21.477516 L 5.6976651,18.956523 V 4.4414906 A 0.93128655,0.93128655 0 0 1 6.6289516,3.510204 H 25.254683 a 0.93128655,0.93128655 0 0 1 0.931287,0.9312866 v 7.4502924 c 0,0.0084 -0.0047,0.0149 -0.0047,0.02328 0.580192,0.776693 0.935943,1.7294 0.935943,2.770578 0,1.041178 -0.355751,1.993884 -0.935943,2.770577 0,0.0084 0.0047,0.0149 0.0047,0.02328 v 1.47702 l 2.520992,2.520993 a 0.93128655,0.93128655 0 0 1 0.20209,1.015102 z M 9.4228116,15.616929 h -0.931287 c -0.5131387,0 -0.9312864,0.418148 -0.9312864,0.931287 v 4.656433 h 1.8625734 z m 0,-1.862573 c 0,-3.594766 2.9242404,-6.5190057 6.5190064,-6.5190057 h 3.725146 c 1.769444,0 3.442966,0.7301286 4.656433,1.9650146 V 5.3727771 H 7.5602382 V 13.925713 A 2.7603333,2.7603333 0 0 1 8.4915246,13.754356 Z M 24.323397,18.94721 a 4.6201126,4.6201126 0 0 1 -1.862574,0.394866 h -3.725146 c -2.567557,0 -4.656432,-2.088876 -4.656432,-4.656433 0,-2.567557 2.088875,-4.656433 4.656432,-4.656433 h 3.716765 A 4.6648143,4.6648143 0 0 0 19.666964,9.0979234 h -3.725146 c -2.567557,0 -4.656433,2.0888756 -4.656433,4.6564326 v 7.450293 h 13.038012 z m 0.931286,-4.261567 c 0,-1.540348 -1.253512,-2.79386 -2.79386,-2.79386 h -3.725146 c -1.540348,0 -2.793859,1.253512 -2.793859,2.79386 0,1.540348 1.253511,2.79386 2.793859,2.79386 h 3.725146 c 1.540348,0 2.79386,-1.253512 2.79386,-2.79386 z"
     id="path1"
     style="stroke-width:0.931287" />
  <path
     d="M 3.1874756,24.145994 H 4.374754 v 3.325811 q 0,0.836816 -0.6007915,1.437608 -0.5936392,0.600791 -1.430456,0.600791 H 0.79861409 v -5.36421 H 1.9930448 v 4.770571 h 0.5936393 q 0.2503297,0 0.4219845,-0.178807 0.178807,-0.178807 0.178807,-0.421984 z m 2.3817078,5.36421 v -5.36421 h 2.9825007 v 0.59364 h -1.78807 v 1.78807 h 1.1944308 v 0.600791 H 6.7636141 v 1.78807 h 1.78807 v 0.593639 z m 4.1697803,0 v -5.36421 h 0.2789393 l 3.297201,2.982501 v -2.982501 h 0.600791 v 5.36421 h -0.271787 l -3.304353,-2.9825 v 2.9825 z m 5.9650013,0 v -4.77057 h -1.19443 v -0.59364 h 3.576139 v 0.59364 h -1.19443 v 4.77057 z m 3.57614,0 v -5.36421 h 1.187278 v 5.36421 z m 2.97535,0 v -5.36421 h 0.278939 l 3.297201,2.982501 v -2.982501 h 0.600791 v 5.36421 h -0.271787 l -3.304353,-2.9825 v 2.9825 z m 7.152278,-2.9825 h 1.78807 v 1.78807 q 0,0.600791 -0.379071,0.901187 -0.379071,0.293243 -0.808208,0.293243 h -1.19443 q -0.486355,0 -0.843969,-0.350461 -0.350462,-0.350462 -0.350462,-0.843969 v -2.975349 q 0,-0.486355 0.343309,-0.836817 0.350462,-0.357614 0.851122,-0.357614 h 1.19443 q 1.122908,0 1.187279,1.194431 h -0.593639 q -0.07152,-0.600791 -0.59364,-0.600791 h -0.600791 q -0.243178,0 -0.421985,0.178807 -0.171654,0.171654 -0.171654,0.421984 v 2.975349 q 0,0.250329 0.171654,0.429136 0.178807,0.171655 0.421985,0.171655 0.572182,-0.02861 0.600791,-0.600791 v -1.187279 h -0.600791 z"
     id="text1"
     style="font-size:7.15228px;font-family:Silom;-inkscape-font-specification:'Silom, Normal';stroke-width:0.0372515"
     aria-label="VENTING" />
</svg>
