<?xml version="1.0" encoding="UTF-8" standalone="no"?>
<!-- Uploaded to: SVG Repo, www.svgrepo.com, Generator: SVG Repo Mixer Tools -->

<svg
   fill="#000000"
   width="800px"
   height="800px"
   viewBox="0 0 32 32"
   version="1.1"
   id="svg1"
   sodipodi:docname="vent-among-us-steam-svgrepo-com.svg"
   inkscape:version="1.4.2 (ebf0e940, 2025-05-08)"
   xmlns:inkscape="http://www.inkscape.org/namespaces/inkscape"
   xmlns:sodipodi="http://sodipodi.sourceforge.net/DTD/sodipodi-0.dtd"
   xmlns="http://www.w3.org/2000/svg"
   xmlns:svg="http://www.w3.org/2000/svg">
  <defs
     id="defs1" />
  <sodipodi:namedview
     id="namedview1"
     pagecolor="#ffffff"
     bordercolor="#000000"
     borderopacity="0.25"
     inkscape:showpageshadow="2"
     inkscape:pageopacity="0.0"
     inkscape:pagecheckerboard="0"
     inkscape:deskcolor="#d1d1d1"
     inkscape:zoom="0.98"
     inkscape:cx="397.95918"
     inkscape:cy="397.95918"
     inkscape:window-width="2560"
     inkscape:window-height="1381"
     inkscape:window-x="2560"
     inkscape:window-y="31"
     inkscape:window-maximized="1"
     inkscape:current-layer="svg1" />
  <path
     d="m 24.323397,13.754356 a 0.931287,0.931287 0 1 1 -1.862574,0 0.931287,0.931287 0 0 1 1.862574,0 z M 20.59825,12.82307 h -1.862573 a 0.93128655,0.93128655 0 0 0 0,1.862573 h 1.862573 a 0.93128655,0.93128655 0 0 0 0,-1.862573 z m 8.310802,9.669548 a 0.93128655,0.93128655 0 0 1 -0.860509,0.574604 H 3.835092 A 0.93128655,0.93128655 0 0 1 3.1766724,21.477516 L 5.6976651,18.956523 V 4.4414906 A 0.93128655,0.93128655 0 0 1 6.6289516,3.510204 H 25.254683 a 0.93128655,0.93128655 0 0 1 0.931287,0.9312866 v 7.4502924 c 0,0.0084 -0.0047,0.0149 -0.0047,0.02328 0.580192,0.776693 0.935943,1.7294 0.935943,2.770578 0,1.041178 -0.355751,1.993884 -0.935943,2.770577 0,0.0084 0.0047,0.0149 0.0047,0.02328 v 1.47702 l 2.520992,2.520993 a 0.93128655,0.93128655 0 0 1 0.20209,1.015102 z M 9.4228116,15.616929 h -0.931287 c -0.5131387,0 -0.9312864,0.418148 -0.9312864,0.931287 v 4.656433 h 1.8625734 z m 0,-1.862573 c 0,-3.594766 2.9242404,-6.5190057 6.5190064,-6.5190057 h 3.725146 c 1.769444,0 3.442966,0.7301286 4.656433,1.9650146 V 5.3727771 H 7.5602382 V 13.925713 A 2.7603333,2.7603333 0 0 1 8.4915246,13.754356 Z M 24.323397,18.94721 a 4.6201126,4.6201126 0 0 1 -1.862574,0.394866 h -3.725146 c -2.567557,0 -4.656432,-2.088876 -4.656432,-4.656433 0,-2.567557 2.088875,-4.656433 4.656432,-4.656433 h 3.716765 A 4.6648143,4.6648143 0 0 0 19.666964,9.0979234 h -3.725146 c -2.567557,0 -4.656433,2.0888756 -4.656433,4.6564326 v 7.450293 h 13.038012 z m 0.931286,-4.261567 c 0,-1.540348 -1.253512,-2.79386 -2.79386,-2.79386 h -3.725146 c -1.540348,0 -2.793859,1.253512 -2.793859,2.79386 0,1.540348 1.253511,2.79386 2.793859,2.79386 h 3.725146 c 1.540348,0 2.79386,-1.253512 2.79386,-2.79386 z"
     id="path1"
     style="stroke-width:0.931287" />
  <text
     xml:space="preserve"
     style="font-size:7.15228px;font-family:Silom;-inkscape-font-specification:'Silom, Normal';text-align:start;writing-mode:lr-tb;direction:ltr;text-anchor:start;fill:#000000;stroke-width:0.0372515"
     x="0.20497486"
     y="29.510204"
     id="text1"><tspan
       sodipodi:role="line"
       id="tspan1"
       style="stroke-width:0.0372515"
       x="0.20497486"
       y="29.510204">VENTING</tspan></text>
</svg>
